# xmcd
#
# Track frame offsets: 
#        150
#        15664
#        30998
#        50605
#        71279
#        87599
#        106804
#        114741
#        133895
#        149326
#        166540
#        181878
#        194112
#        208807
#        227182
#        250288
#
# Disc length: 3707 seconds
#
# Revision: 0
# Processed by: cddbd v1.5.2PL0 Copyright (c) Steve Scherf et al.
# Submitted via: ExactAudioCopy v0.99pb3
#
DISCID=e40e7910
DTITLE=The Three Johns - Live In Chicago
DYEAR=1986
DGENRE=
TTITLE0=Teenage Nightingales to Wax
TTITLE1=The Day the Industry Decided to Stop
TTITLE2=Awol
TTITLE3=The Devil's Music
TTITLE4=3 Junk
TTITLE5=Death of the European
TTITLE6=McDonna
TTITLE7=English White Boy Engineer
TTITLE8=Do Not Cross the Line
TTITLE9=20th Century Boy
TTITLE10=The World of the Workers
TTITLE11=Windolene
TTITLE12=Kick the Dog
TTITLE13=Do the Square Thing [*]
TTITLE14=Rooster Blues [*]
TTITLE15=Reds Strike the Blues [*]
EXTD=
EXTT0=
EXTT1=
EXTT2=
EXTT3=
EXTT4=
EXTT5=
EXTT6=
EXTT7=
EXTT8=
EXTT9=
EXTT10=
EXTT11=
EXTT12=
EXTT13=
EXTT14=
EXTT15=
PLAYORDER=
